<svg xmlns="http://www.w3.org/2000/svg" version="1.1" xmlns:xlink="http://www.w3.org/1999/xlink" xmlns:svgjs="http://svgjs.dev/svgjs" width="2000" height="1500" viewBox="0 0 2000 1500"><rect width="2000" height="1500" fill="#620709"></rect><g transform="matrix(0.75,0,0,0.75,249.090909090909,282.7536437246963)"><svg viewBox="0 0 396 247" data-background-color="#620709" preserveAspectRatio="xMidYMid meet" height="1247" width="2000" xmlns="http://www.w3.org/2000/svg" xmlns:xlink="http://www.w3.org/1999/xlink"><g id="tight-bounds" transform="matrix(1,0,0,1,0.2400000000000091,-0.09999999999999432)"><svg viewBox="0 0 395.52 247.2" height="247.2" width="395.52"><g><svg></svg></g><g><svg viewBox="0 0 395.52 247.2" height="247.2" width="395.52"><mask id="b1ca36b9-e680-4b7a-87aa-1a0026bf70a9"><rect width="395.52" height="247.2" fill="white"></rect><g transform="matrix(1,0,0,1,0,65.02849723064051)" id="clone"><svg viewBox="0 0 395.52 117.14300553871895" height="117.14300553871895" width="395.52"><g><svg viewBox="0 0 395.52 117.14300553871895" height="117.14300553871895" width="395.52"><g><svg viewBox="0 0 395.52 117.14300553871895" height="117.14300553871895" width="395.52"><g><svg viewBox="0 0 395.52 117.14300553871895" height="117.14300553871895" width="395.52"><g id="SvgjsG6717"><svg viewBox="0 0 395.52 117.14300553871895" height="117.14300553871895" width="395.52" id="SvgjsSvg6716"><g><svg viewBox="0 0 395.52 70.14232679738562" height="70.14232679738562" width="395.52"><g transform="matrix(1,0,0,1,0,0)"><svg width="395.52" viewBox="3.5 -38 230.49 41.7" height="70.14232679738562" data-palette-color="#ffffff"><path d="M9.9 0L6.5 0 6.5-35 9.9-35 9.9-18.8 30.9-18.8 30.9-35 34.3-35 34.3 0 30.9 0 30.9-17.6 9.9-17.6 9.9 0ZM45.75 0L42.1 0 55.55-35 58.65-35 72.1 0 68.45 0 62.25-16.4 50.9-16.4 45.75 0ZM56.2-32.4L55.9-32.4 51.25-17.6 61.8-17.6 56.2-32.4ZM87.95 0.7L73.55-35 77.2-35 89.45-4.4 89.75-4.4 97.75-24.2 93.4-35 97.05-35 109.25-4.5 109.55-4.5 119.65-35 123.3-35 108.9 0.7 107.8 0.7 98.45-22.55 89.05 0.7 87.95 0.7ZM134.49 0L131.09 0 131.09-35 134.49-35 134.49 0ZM158.59 0L154.99 0 154.99-14.8 142.59-35 146.39-35 157.54-16.7 157.84-16.7 166.74-35 170.54-35 158.59-15.5 158.59 0ZM189.44 0L185.84 0 185.84-14.8 173.44-35 177.24-35 188.39-16.7 188.69-16.7 197.59-35 201.39-35 189.44-15.5 189.44 0ZM204.63 0L200.99 0 214.44-35 217.53-35 230.99 0 227.34 0 221.13-16.4 209.78-16.4 204.63 0ZM215.09-32.4L214.78-32.4 210.13-17.6 220.69-17.6 215.09-32.4Z" opacity="1" transform="matrix(1,0,0,1,0,0)" fill="black" class="wordmark-text-0" id="SvgjsPath6715" stroke-width="5" stroke="black" stroke-linejoin="round"></path></svg></g></svg></g><g transform="matrix(1,0,0,1,2.5,79.12034953871895)"><svg viewBox="0 0 390.52 38.022656" height="38.022656" width="390.52"><g transform="matrix(1,0,0,1,0,0)"><svg width="390.52" viewBox="-4.35 -41.85 484.57000000000005 47.75" height="38.022656" data-palette-color="#ffffff"><path d="M11.8-5.7L11.8-5.7Q10.9-3.25 8.95-1.58 7 0.1 5.33 0.7 3.65 1.3 2.3 1.3L2.3 1.3Q-1.35 1.3-1.35-1.55L-1.35-1.55Q-1.35-4.45 1.85-6.8L1.85-6.8Q3.35-7.9 5.1-8.25L5.1-8.25Q5.35-8.25 5.35-8.05L5.35-8.05Q5.35-7.95 5.25-7.85L5.25-7.85Q4-6.9 2.88-4.9 1.75-2.9 1.75-1.4 1.75 0.1 3 0.1L3 0.1Q4 0.1 4.98-0.73 5.95-1.55 6.45-2.4L6.45-2.4 6.95-3.2Q7.95-4.8 8.63-8.3 9.3-11.8 9.5-14.5L9.5-14.5 9.65-17.2Q9.65-17.6 9.5-17.6L9.5-17.6 9.3-17.5 4.35-11.7Q3.8-11.05 3.6-11.05L3.6-11.05Q3.35-11.05 3.35-11.4L3.35-11.4Q3.35-12.05 3.7-12.4L3.7-12.4 4.15-12.95Q9.85-19.35 10.65-20.7L10.65-20.7Q11.4-21.85 12.85-22.7L12.85-22.7Q14.25-23.5 16.15-23.5L16.15-23.5Q16.65-23.5 16.65-23.1L16.65-23.1Q16.65-22.85 16.25-22.65L16.25-22.65Q16.1-22.6 15.88-22.43 15.65-22.25 15.08-21.6 14.5-20.95 14.05-20.1 13.6-19.25 13.25-17.73 12.9-16.2 12.9-14.35L12.9-14.35Q12.9-8.6 11.8-5.7ZM54.65-4.85L54.65-4.85Q48.8 0.65 47.15 0.65L47.15 0.65Q46.3 0.65 46.3-0.5 46.3-1.65 47.2-3.85 48.1-6.05 49-7.7L49-7.7 49.9-9.3Q53.7-15.95 55.65-18.85L55.65-18.85Q56.5-20.1 57.82-20.98 59.15-21.85 60.3-21.85L60.3-21.85Q60.7-21.85 60.7-21.5L60.7-21.5Q60.7-21.25 60.35-20.55L60.35-20.55Q59.75-19.45 57.4-15.3 55.05-11.15 54.6-10.3L54.6-10.3Q52.55-6.7 52.55-5.5L52.55-5.5Q52.55-5.05 52.85-5.05L52.85-5.05Q53.35-5.05 56.05-7.55L56.05-7.55Q58.15-9.65 61.6-13.6L61.6-13.6Q61.75-13.75 61.85-13.75 61.95-13.75 61.95-13.55L61.95-13.55Q61.95-12.6 61.2-11.7L61.2-11.7Q57.5-7.6 54.65-4.85ZM61.3-24.7L61.3-24.7Q60.05-24.7 60.05-26.2L60.05-26.2Q60.05-27.6 61.1-29.03 62.15-30.45 63.4-30.45L63.4-30.45Q64.9-30.45 64.9-28.75L64.9-28.75Q64.9-27.35 63.75-26.03 62.6-24.7 61.3-24.7ZM107.69-4.85L107.69-4.85Q101.84 0.65 99.99 0.65L99.99 0.65Q99.14 0.65 99.14-0.25L99.14-0.25Q99.14-0.8 99.39-1.63 99.64-2.45 100.02-3.28 100.39-4.1 100.74-4.8 101.09-5.5 101.44-6.1 101.79-6.7 101.79-6.75L101.79-6.75Q102.54-8.1 104.04-10.53 105.54-12.95 106.44-14.53 107.34-16.1 107.34-16.45L107.34-16.45Q107.34-16.7 107.09-16.7L107.09-16.7 106.39-16.45Q104.09-14.8 100.89-11.33 97.69-7.85 95.64-5.2L95.64-5.2 93.59-2.6Q92.94-1.65 92.44-1.05 91.94-0.45 91.02 0.13 90.09 0.7 89.14 0.7L89.14 0.7Q88.44 0.7 88.44 0.3 88.44-0.1 89.39-2.02 90.34-3.95 91.29-5.7L91.29-5.7 92.24-7.4 97.14-16Q97.89-17.25 98.37-17.93 98.84-18.6 99.69-19.63 100.54-20.65 101.52-21.15 102.49-21.65 103.59-21.75L103.59-21.75Q103.99-21.75 103.99-21.4L103.99-21.4Q103.99-21.1 103.84-20.9L103.84-20.9Q102.69-19.1 100.32-14.95 97.94-10.8 97.29-9.55L97.29-9.55Q97.14-9.25 97.14-9.1L97.14-9.1Q97.14-9 97.24-9 97.34-9 97.74-9.3L97.74-9.3Q98.69-10.4 100.22-12.05 101.74-13.7 105.39-17.03 109.04-20.35 111.39-21.5L111.39-21.5Q111.94-21.75 112.44-21.75L112.44-21.75Q113.14-21.75 113.14-20.95L113.14-20.95Q112.74-18.6 109.29-12.9L109.29-12.9Q105.49-6.65 105.49-5.5L105.49-5.5Q105.49-5.1 105.84-5.1L105.84-5.1Q106.09-5.1 106.42-5.28 106.74-5.45 107.14-5.78 107.54-6.1 107.82-6.35 108.09-6.6 108.54-7.03 108.99-7.45 109.09-7.55L109.09-7.55Q111.19-9.65 114.64-13.6L114.64-13.6Q114.79-13.75 114.89-13.75 114.99-13.75 114.99-13.55L114.99-13.55Q114.99-12.6 114.24-11.7L114.24-11.7Q110.54-7.6 107.69-4.85ZM156.19-4.85L156.19-4.85Q153.94-2.7 151.11-0.83 148.29 1.05 146.34 1.05L146.34 1.05Q144.04 1.05 144.04-2.5L144.04-2.5Q144.04-6.25 146.69-10.83 149.34-15.4 153.41-18.65 157.49-21.9 161.14-21.9L161.14-21.9Q163.09-21.9 163.09-20.45L163.09-20.45Q163.09-17.95 159.84-14.8L159.84-14.8Q159.54-14.5 158.54-13.75 157.54-13 157.14-13L157.14-13Q156.89-13 156.89-13.25L156.89-13.25 157.04-13.7Q159.04-17.25 159.04-19.1L159.04-19.1Q159.04-20.1 158.39-20.1L158.39-20.1Q156.84-20.1 154.46-17.07 152.09-14.05 150.34-10.18 148.59-6.3 148.59-4.05L148.59-4.05Q148.59-2.25 149.89-2.25L149.89-2.25Q152.14-2.25 155.54-5.5L155.54-5.5Q158.19-7.95 163.14-13.6L163.14-13.6Q163.29-13.75 163.39-13.75 163.49-13.75 163.49-13.55L163.49-13.55Q163.49-12.6 162.74-11.7L162.74-11.7Q159.04-7.6 156.19-4.85ZM206.23-16.95L206.23-16.95Q206.83-18.2 206.83-19.15L206.83-19.15Q206.83-19.95 206.33-19.95L206.33-19.95Q206.03-19.95 205.66-19.78 205.28-19.6 205.08-19.4L205.08-19.4 204.83-19.2Q203.28-17.85 200.96-14.28 198.63-10.7 198.63-9.7L198.63-9.7Q198.63-9.5 198.73-9.5L198.73-9.5Q199.03-9.5 200.06-10 201.08-10.5 203.01-12.35 204.93-14.2 206.23-16.95ZM203.98-5.5L203.98-5.5Q206.63-7.95 211.58-13.6L211.58-13.6Q211.73-13.75 211.83-13.75 211.93-13.75 211.93-13.55L211.93-13.55Q211.93-12.6 211.18-11.7L211.18-11.7Q207.48-7.6 204.63-4.85L204.63-4.85Q202.53-2.75 199.63-0.83 196.73 1.1 194.83 1.1L194.83 1.1Q192.53 1.1 192.53-2.1L192.53-2.1Q192.53-7.4 196.46-13.2 200.38-19 205.53-21.05L205.53-21.05Q207.68-21.95 209.43-21.95L209.43-21.95Q211.38-21.95 211.38-20.4L211.38-20.4Q211.38-17.5 207.28-13.75 203.18-10 198.08-8.05L198.08-8.05Q197.88-8 197.73-7.7L197.73-7.7Q196.98-5.65 196.98-4.05L196.98-4.05Q196.98-2.25 198.33-2.25L198.33-2.25Q200.48-2.25 203.98-5.5ZM287.38-1.5L287.38-1.5Q285.63 0.9 283.58 0.9L283.58 0.9Q282.83 0.9 282.83 0.25L282.83 0.25Q282.83-0.45 283.73-2.55 284.63-4.65 285.93-7.18 287.23-9.7 288.5-12.1 289.78-14.5 290.73-16.2L290.73-16.2 291.63-17.85Q299.78-31.4 299.78-33.9L299.78-33.9Q299.78-35 297.98-35L297.98-35 296.13-34.75Q295.33-34.75 295.33-35.15L295.33-35.15Q295.33-35.3 295.43-35.48 295.53-35.65 295.63-35.75L295.63-35.75 295.73-35.85Q296.13-36.1 296.98-36.48 297.83-36.85 300.8-37.5 303.78-38.15 307.23-38.15L307.23-38.15Q307.78-38 307.78-37.55L307.78-37.55Q307.78-37.15 307.23-36.6L307.23-36.6Q305.63-34.9 302.93-30.25L302.93-30.25Q298.08-21.85 295.38-16.45L295.38-16.45Q294.98-15.65 293.55-12.73 292.13-9.8 291.5-8.55 290.88-7.3 289.68-5.2 288.48-3.1 287.38-1.5ZM356.72-34.3L356.72-34.3Q356.72-37.35 354.32-37.35L354.32-37.35Q351.97-37.35 349.35-34.45 346.72-31.55 345.05-27.75 343.37-23.95 343.37-21.2L343.37-21.2Q343.37-18.1 345.62-18.1L345.62-18.1Q348.02-18.1 350.7-21.05 353.37-24 355.05-27.8 356.72-31.6 356.72-34.3ZM354.07-14.95L354.07-14.95Q352.12-11.7 350-8.9 347.87-6.1 345-3.25 342.12-0.4 338.67 1.25 335.22 2.9 331.67 2.9L331.67 2.9Q328.17 2.9 328.17 1.95L328.17 1.95Q328.17 1.7 328.5 1.55 328.82 1.4 329.02 1.4L329.02 1.4Q331.62 1.4 334.3 0.25 336.97-0.9 339.12-2.75 341.27-4.6 343.27-6.83 345.27-9.05 346.77-11.28 348.27-13.5 349.37-15.35 350.47-17.2 351.02-18.35L351.02-18.35 351.62-19.5Q351.77-19.8 351.77-19.9 351.77-20 351.67-20L351.67-20 351.17-19.75Q346.97-15.55 343.12-15.55L343.12-15.55Q339.02-15.55 339.02-20.75L339.02-20.75Q339.02-24.6 340.95-28.73 342.87-32.85 346.45-35.77 350.02-38.7 354.12-38.7L354.12-38.7Q357.07-38.7 358.77-37.05 360.47-35.4 360.47-32.3L360.47-32.3Q360.47-29.55 359.42-26.3 358.37-23.05 357.25-20.78 356.12-18.5 354.07-14.95ZM412.52-14.9L412.52-14.9Q410.92-11.95 407.62-11.6L407.62-11.6Q406.82-11.5 405.32-11.4L405.32-11.4 400.37-2.05Q399.47-0.65 397.79 0.35 396.12 1.35 394.67 1.35L394.67 1.35Q394.07 1.35 394.07 0.7L394.07 0.7 394.12 0.3Q394.87-1.35 400.52-11.3L400.52-11.3 399.17-11.3 389.37-11.6Q388.37-11.65 388.37-12.45L388.37-12.45 388.57-13.2Q389.37-14.1 390.79-15.63 392.22-17.15 396.24-21.18 400.27-25.2 403.87-28.45 407.47-31.7 411.77-34.8 416.07-37.9 418.92-38.8L418.92-38.8Q419.22-38.85 419.52-38.85L419.52-38.85Q420.52-38.85 420.52-38.2L420.52-38.2Q420.52-37.95 420.42-37.75L420.42-37.75Q420.12-37.1 418.14-33.7 416.17-30.3 412.97-24.8 409.77-19.3 407.57-15.45L407.57-15.45Q408.67-15.5 409.72-15.58 410.77-15.65 411.39-15.73 412.02-15.8 412.22-15.8L412.22-15.8Q412.72-15.8 412.72-15.45L412.72-15.45Q412.72-15.25 412.52-14.9ZM402.87-15.4L412.97-32.65Q413.17-33.05 413.17-33.25 413.17-33.45 412.97-33.45L412.97-33.45 412.42-33.25Q408.12-30.3 403.79-26.33 399.47-22.35 397.27-19.8L397.27-19.8 395.07-17.3Q394.72-16.9 394.72-16.5L394.72-16.5Q394.72-16 395.47-15.85L395.47-15.85Q398.62-15.45 402.87-15.4L402.87-15.4ZM452.47 0.8L452.47 0.8Q448.42 0.8 445.97-1.1 443.52-3 443.52-6.8L443.52-6.8Q443.52-9.7 445.17-12.43 446.82-15.15 449.57-17.2 452.32-19.25 454.87-20.68 457.42-22.1 460.17-23.2L460.17-23.2Q460.42-23.3 460.42-23.7L460.42-23.7Q459.72-26.25 459.72-29.95L459.72-29.95Q459.72-33.35 462.82-35.77 465.92-38.2 470.27-38.2L470.27-38.2Q473.32-38.2 475.27-37.08 477.22-35.95 477.22-33.6L477.22-33.6Q477.22-27.75 465.87-22.15L465.87-22.15Q465.67-22.1 465.67-21.8L465.67-21.8 465.82-21.25Q465.97-20.7 466.17-19.83 466.37-18.95 466.54-17.85 466.72-16.75 466.87-15.4 467.02-14.05 467.02-12.8L467.02-12.8Q467.02-6.75 462.69-2.98 458.37 0.8 452.47 0.8ZM462.17-12.55L462.17-12.55Q462.17-16.55 460.87-21.65L460.87-21.65Q460.87-21.95 460.62-21.95L460.62-21.95Q460.47-21.95 460.37-21.9L460.37-21.9Q459.27-21.5 457.47-20.25 455.67-19 453.49-16.98 451.32-14.95 449.79-11.83 448.27-8.7 448.27-5.35L448.27-5.35Q448.27-3.1 449.52-1.83 450.77-0.55 452.92-0.55L452.92-0.55Q455.82-0.55 457.99-2.5 460.17-4.45 461.17-7.13 462.17-9.8 462.17-12.55ZM465.72-23.55L465.72-23.55Q468.82-25.2 470.82-27.9 472.82-30.6 472.82-33.65L472.82-33.65Q472.82-35.15 471.89-36.02 470.97-36.9 469.57-36.9L469.57-36.9Q467.52-36.9 465.87-35.3 464.22-33.7 464.22-31.45L464.22-31.45Q464.22-29 464.37-27.85 464.52-26.7 465.17-23.65L465.17-23.65Q465.27-23.5 465.47-23.5L465.47-23.5Q465.62-23.5 465.72-23.55Z" opacity="1" transform="matrix(1,0,0,1,0,0)" fill="black" class="slogan-text-1" id="SvgjsPath6714" stroke-width="5" stroke="black" stroke-linejoin="round"></path></svg></g></svg></g></svg></g></svg></g></svg></g></svg></g></svg></g></mask><g mask="url(#b1ca36b9-e680-4b7a-87aa-1a0026bf70a9)"><g><path d="M123.6 247.2h-24.014v-247.2h24.014v114.418h148.32v-114.418h24.014v247.2h-24.014v-124.306h-148.32z" fill="#ffffff" fill-rule="nonzero" stroke="none" stroke-width="1" stroke-linecap="butt" stroke-linejoin="miter" stroke-miterlimit="10" stroke-dasharray="" stroke-dashoffset="0" font-family="none" font-weight="none" font-size="none" text-anchor="none" style="mix-blend-mode: normal" data-fill-palette-color="tertiary"></path></g></g><g transform="matrix(1,0,0,1,0,65.02849723064051)"><svg viewBox="0 0 395.52 117.14300553871895" height="117.14300553871895" width="395.52"><g><svg viewBox="0 0 395.52 117.14300553871895" height="117.14300553871895" width="395.52"><g><svg viewBox="0 0 395.52 117.14300553871895" height="117.14300553871895" width="395.52"><g><svg viewBox="0 0 395.52 117.14300553871895" height="117.14300553871895" width="395.52"><g id="textblocktransform"><svg viewBox="0 0 395.52 117.14300553871895" height="117.14300553871895" width="395.52" id="textblock"><g><svg viewBox="0 0 395.52 70.14232679738562" height="70.14232679738562" width="395.52"><g transform="matrix(1,0,0,1,0,0)"><svg width="395.52" viewBox="3.5 -38 230.49 41.7" height="70.14232679738562" data-palette-color="#ffffff"><path d="M9.9 0L6.5 0 6.5-35 9.9-35 9.9-18.8 30.9-18.8 30.9-35 34.3-35 34.3 0 30.9 0 30.9-17.6 9.9-17.6 9.9 0ZM45.75 0L42.1 0 55.55-35 58.65-35 72.1 0 68.45 0 62.25-16.4 50.9-16.4 45.75 0ZM56.2-32.4L55.9-32.4 51.25-17.6 61.8-17.6 56.2-32.4ZM87.95 0.7L73.55-35 77.2-35 89.45-4.4 89.75-4.4 97.75-24.2 93.4-35 97.05-35 109.25-4.5 109.55-4.5 119.65-35 123.3-35 108.9 0.7 107.8 0.7 98.45-22.55 89.05 0.7 87.95 0.7ZM134.49 0L131.09 0 131.09-35 134.49-35 134.49 0ZM158.59 0L154.99 0 154.99-14.8 142.59-35 146.39-35 157.54-16.7 157.84-16.7 166.74-35 170.54-35 158.59-15.5 158.59 0ZM189.44 0L185.84 0 185.84-14.8 173.44-35 177.24-35 188.39-16.7 188.69-16.7 197.59-35 201.39-35 189.44-15.5 189.44 0ZM204.63 0L200.99 0 214.44-35 217.53-35 230.99 0 227.34 0 221.13-16.4 209.78-16.4 204.63 0ZM215.09-32.4L214.78-32.4 210.13-17.6 220.69-17.6 215.09-32.4Z" opacity="1" transform="matrix(1,0,0,1,0,0)" fill="#ffffff" class="wordmark-text-0" data-fill-palette-color="primary" id="text-0"></path></svg></g></svg></g><g transform="matrix(1,0,0,1,2.5,79.12034953871895)"><svg viewBox="0 0 390.52 38.022656" height="38.022656" width="390.52"><g transform="matrix(1,0,0,1,0,0)"><svg width="390.52" viewBox="-4.35 -41.85 484.57000000000005 47.75" height="38.022656" data-palette-color="#ffffff"><path d="M11.8-5.7L11.8-5.7Q10.9-3.25 8.95-1.58 7 0.1 5.33 0.7 3.65 1.3 2.3 1.3L2.3 1.3Q-1.35 1.3-1.35-1.55L-1.35-1.55Q-1.35-4.45 1.85-6.8L1.85-6.8Q3.35-7.9 5.1-8.25L5.1-8.25Q5.35-8.25 5.35-8.05L5.35-8.05Q5.35-7.95 5.25-7.85L5.25-7.85Q4-6.9 2.88-4.9 1.75-2.9 1.75-1.4 1.75 0.1 3 0.1L3 0.1Q4 0.1 4.98-0.73 5.95-1.55 6.45-2.4L6.45-2.4 6.95-3.2Q7.95-4.8 8.63-8.3 9.3-11.8 9.5-14.5L9.5-14.5 9.65-17.2Q9.65-17.6 9.5-17.6L9.5-17.6 9.3-17.5 4.35-11.7Q3.8-11.05 3.6-11.05L3.6-11.05Q3.35-11.05 3.35-11.4L3.35-11.4Q3.35-12.05 3.7-12.4L3.7-12.4 4.15-12.95Q9.85-19.35 10.65-20.7L10.65-20.7Q11.4-21.85 12.85-22.7L12.85-22.7Q14.25-23.5 16.15-23.5L16.15-23.5Q16.65-23.5 16.65-23.1L16.65-23.1Q16.65-22.85 16.25-22.65L16.25-22.65Q16.1-22.6 15.88-22.43 15.65-22.25 15.08-21.6 14.5-20.95 14.05-20.1 13.6-19.25 13.25-17.73 12.9-16.2 12.9-14.35L12.9-14.35Q12.9-8.6 11.8-5.7ZM54.65-4.85L54.65-4.85Q48.8 0.65 47.15 0.65L47.15 0.65Q46.3 0.65 46.3-0.5 46.3-1.65 47.2-3.85 48.1-6.05 49-7.7L49-7.7 49.9-9.3Q53.7-15.95 55.65-18.85L55.65-18.85Q56.5-20.1 57.82-20.98 59.15-21.85 60.3-21.85L60.3-21.85Q60.7-21.85 60.7-21.5L60.7-21.5Q60.7-21.25 60.35-20.55L60.35-20.55Q59.75-19.45 57.4-15.3 55.05-11.15 54.6-10.3L54.6-10.3Q52.55-6.7 52.55-5.5L52.55-5.5Q52.55-5.05 52.85-5.05L52.85-5.05Q53.35-5.05 56.05-7.55L56.05-7.55Q58.15-9.65 61.6-13.6L61.6-13.6Q61.75-13.75 61.85-13.75 61.95-13.75 61.95-13.55L61.95-13.55Q61.95-12.6 61.2-11.7L61.2-11.7Q57.5-7.6 54.65-4.85ZM61.3-24.7L61.3-24.7Q60.05-24.7 60.05-26.2L60.05-26.2Q60.05-27.6 61.1-29.03 62.15-30.45 63.4-30.45L63.4-30.45Q64.9-30.45 64.9-28.75L64.9-28.75Q64.9-27.35 63.75-26.03 62.6-24.7 61.3-24.7ZM107.69-4.85L107.69-4.85Q101.84 0.65 99.99 0.65L99.99 0.65Q99.14 0.65 99.14-0.25L99.14-0.25Q99.14-0.8 99.39-1.63 99.64-2.45 100.02-3.28 100.39-4.1 100.74-4.8 101.09-5.5 101.44-6.1 101.79-6.7 101.79-6.75L101.79-6.75Q102.54-8.1 104.04-10.53 105.54-12.95 106.44-14.53 107.34-16.1 107.34-16.45L107.34-16.45Q107.34-16.7 107.09-16.7L107.09-16.7 106.39-16.45Q104.09-14.8 100.89-11.33 97.69-7.85 95.64-5.2L95.64-5.2 93.59-2.6Q92.94-1.65 92.44-1.05 91.94-0.45 91.02 0.13 90.09 0.7 89.14 0.7L89.14 0.7Q88.44 0.7 88.44 0.3 88.44-0.1 89.39-2.02 90.34-3.95 91.29-5.7L91.29-5.7 92.24-7.4 97.14-16Q97.89-17.25 98.37-17.93 98.84-18.6 99.69-19.63 100.54-20.65 101.52-21.15 102.49-21.65 103.59-21.75L103.59-21.75Q103.99-21.75 103.99-21.4L103.99-21.4Q103.99-21.1 103.84-20.9L103.84-20.9Q102.69-19.1 100.32-14.95 97.94-10.8 97.29-9.55L97.29-9.55Q97.14-9.25 97.14-9.1L97.14-9.1Q97.14-9 97.24-9 97.34-9 97.74-9.3L97.74-9.3Q98.69-10.4 100.22-12.05 101.74-13.7 105.39-17.03 109.04-20.35 111.39-21.5L111.39-21.5Q111.94-21.75 112.44-21.75L112.44-21.75Q113.14-21.75 113.14-20.95L113.14-20.95Q112.74-18.6 109.29-12.9L109.29-12.9Q105.49-6.65 105.49-5.5L105.49-5.5Q105.49-5.1 105.84-5.1L105.84-5.1Q106.09-5.1 106.42-5.28 106.74-5.45 107.14-5.78 107.54-6.1 107.82-6.35 108.09-6.6 108.54-7.03 108.99-7.45 109.09-7.55L109.09-7.55Q111.19-9.65 114.64-13.6L114.64-13.6Q114.79-13.75 114.89-13.75 114.99-13.75 114.99-13.55L114.99-13.55Q114.99-12.6 114.24-11.7L114.24-11.7Q110.54-7.6 107.69-4.85ZM156.19-4.85L156.19-4.85Q153.94-2.7 151.11-0.83 148.29 1.05 146.34 1.05L146.34 1.05Q144.04 1.05 144.04-2.5L144.04-2.5Q144.04-6.25 146.69-10.83 149.34-15.4 153.41-18.65 157.49-21.9 161.14-21.9L161.14-21.9Q163.09-21.9 163.09-20.45L163.09-20.45Q163.09-17.95 159.84-14.8L159.84-14.8Q159.54-14.5 158.54-13.75 157.54-13 157.14-13L157.14-13Q156.89-13 156.89-13.25L156.89-13.25 157.04-13.7Q159.04-17.25 159.04-19.1L159.04-19.1Q159.04-20.1 158.39-20.1L158.39-20.1Q156.84-20.1 154.46-17.07 152.09-14.05 150.34-10.18 148.59-6.3 148.59-4.05L148.59-4.05Q148.59-2.25 149.89-2.25L149.89-2.25Q152.14-2.25 155.54-5.5L155.54-5.5Q158.19-7.95 163.14-13.6L163.14-13.6Q163.29-13.75 163.39-13.75 163.49-13.75 163.49-13.55L163.49-13.55Q163.49-12.6 162.74-11.7L162.74-11.7Q159.04-7.6 156.19-4.85ZM206.23-16.95L206.23-16.95Q206.83-18.2 206.83-19.15L206.83-19.15Q206.83-19.95 206.33-19.95L206.33-19.95Q206.03-19.95 205.66-19.78 205.28-19.6 205.08-19.4L205.08-19.4 204.83-19.2Q203.28-17.85 200.96-14.28 198.63-10.7 198.63-9.7L198.63-9.7Q198.63-9.5 198.73-9.5L198.73-9.5Q199.03-9.5 200.06-10 201.08-10.5 203.01-12.35 204.93-14.2 206.23-16.95ZM203.98-5.5L203.98-5.5Q206.63-7.95 211.58-13.6L211.58-13.6Q211.73-13.75 211.83-13.75 211.93-13.75 211.93-13.55L211.93-13.55Q211.93-12.6 211.18-11.7L211.18-11.7Q207.48-7.6 204.63-4.85L204.63-4.85Q202.53-2.75 199.63-0.83 196.73 1.1 194.83 1.1L194.83 1.1Q192.53 1.1 192.53-2.1L192.53-2.1Q192.53-7.4 196.46-13.2 200.38-19 205.53-21.05L205.53-21.05Q207.68-21.95 209.43-21.95L209.43-21.95Q211.38-21.95 211.38-20.4L211.38-20.4Q211.38-17.5 207.28-13.75 203.18-10 198.08-8.05L198.08-8.05Q197.88-8 197.73-7.7L197.73-7.7Q196.98-5.65 196.98-4.05L196.98-4.05Q196.98-2.25 198.33-2.25L198.33-2.25Q200.48-2.25 203.98-5.5ZM287.38-1.5L287.38-1.5Q285.63 0.9 283.58 0.9L283.58 0.9Q282.83 0.9 282.83 0.25L282.83 0.25Q282.83-0.45 283.73-2.55 284.63-4.65 285.93-7.18 287.23-9.7 288.5-12.1 289.78-14.5 290.73-16.2L290.73-16.2 291.63-17.85Q299.78-31.4 299.78-33.9L299.78-33.9Q299.78-35 297.98-35L297.98-35 296.13-34.75Q295.33-34.75 295.33-35.15L295.33-35.15Q295.33-35.3 295.43-35.48 295.53-35.65 295.63-35.75L295.63-35.75 295.73-35.85Q296.13-36.1 296.98-36.48 297.83-36.85 300.8-37.5 303.78-38.15 307.23-38.15L307.23-38.15Q307.78-38 307.78-37.55L307.78-37.55Q307.78-37.15 307.23-36.6L307.23-36.6Q305.63-34.9 302.93-30.25L302.93-30.25Q298.08-21.85 295.38-16.45L295.38-16.45Q294.98-15.65 293.55-12.73 292.13-9.8 291.5-8.55 290.88-7.3 289.68-5.2 288.48-3.1 287.38-1.5ZM356.72-34.3L356.72-34.3Q356.72-37.35 354.32-37.35L354.32-37.35Q351.97-37.35 349.35-34.45 346.72-31.55 345.05-27.75 343.37-23.95 343.37-21.2L343.37-21.2Q343.37-18.1 345.62-18.1L345.62-18.1Q348.02-18.1 350.7-21.05 353.37-24 355.05-27.8 356.72-31.6 356.72-34.3ZM354.07-14.95L354.07-14.95Q352.12-11.7 350-8.9 347.87-6.1 345-3.25 342.12-0.4 338.67 1.25 335.22 2.9 331.67 2.9L331.67 2.9Q328.17 2.9 328.17 1.95L328.17 1.95Q328.17 1.7 328.5 1.55 328.82 1.4 329.02 1.4L329.02 1.4Q331.62 1.4 334.3 0.25 336.97-0.9 339.12-2.75 341.27-4.6 343.27-6.83 345.27-9.05 346.77-11.28 348.27-13.5 349.37-15.35 350.47-17.2 351.02-18.35L351.02-18.35 351.62-19.5Q351.77-19.8 351.77-19.9 351.77-20 351.67-20L351.67-20 351.17-19.75Q346.97-15.55 343.12-15.55L343.12-15.55Q339.02-15.55 339.02-20.75L339.02-20.75Q339.02-24.6 340.95-28.73 342.87-32.85 346.45-35.77 350.02-38.7 354.12-38.7L354.12-38.7Q357.07-38.7 358.77-37.05 360.47-35.4 360.47-32.3L360.47-32.3Q360.47-29.55 359.42-26.3 358.37-23.05 357.25-20.78 356.12-18.5 354.07-14.95ZM412.52-14.9L412.52-14.9Q410.92-11.95 407.62-11.6L407.62-11.6Q406.82-11.5 405.32-11.4L405.32-11.4 400.37-2.05Q399.47-0.65 397.79 0.35 396.12 1.35 394.67 1.35L394.67 1.35Q394.07 1.35 394.07 0.7L394.07 0.7 394.12 0.3Q394.87-1.35 400.52-11.3L400.52-11.3 399.17-11.3 389.37-11.6Q388.37-11.65 388.37-12.45L388.37-12.45 388.57-13.2Q389.37-14.1 390.79-15.63 392.22-17.15 396.24-21.18 400.27-25.2 403.87-28.45 407.47-31.7 411.77-34.8 416.07-37.9 418.92-38.8L418.92-38.8Q419.22-38.85 419.52-38.85L419.52-38.85Q420.52-38.85 420.52-38.2L420.52-38.2Q420.52-37.95 420.42-37.75L420.42-37.75Q420.12-37.1 418.14-33.7 416.17-30.3 412.97-24.8 409.77-19.3 407.57-15.45L407.57-15.45Q408.67-15.5 409.72-15.58 410.77-15.65 411.39-15.73 412.02-15.8 412.22-15.8L412.22-15.8Q412.72-15.8 412.72-15.45L412.72-15.45Q412.72-15.25 412.52-14.9ZM402.87-15.4L412.97-32.65Q413.17-33.05 413.17-33.25 413.17-33.45 412.97-33.45L412.97-33.45 412.42-33.25Q408.12-30.3 403.79-26.33 399.47-22.35 397.27-19.8L397.27-19.8 395.07-17.3Q394.72-16.9 394.72-16.5L394.72-16.5Q394.72-16 395.47-15.85L395.47-15.85Q398.62-15.45 402.87-15.4L402.87-15.4ZM452.47 0.8L452.47 0.8Q448.42 0.8 445.97-1.1 443.52-3 443.52-6.8L443.52-6.8Q443.52-9.7 445.17-12.43 446.82-15.15 449.57-17.2 452.32-19.25 454.87-20.68 457.42-22.1 460.17-23.2L460.17-23.2Q460.42-23.3 460.42-23.7L460.42-23.7Q459.72-26.25 459.72-29.95L459.72-29.95Q459.72-33.35 462.82-35.77 465.92-38.2 470.27-38.2L470.27-38.2Q473.32-38.2 475.27-37.08 477.22-35.95 477.22-33.6L477.22-33.6Q477.22-27.75 465.87-22.15L465.87-22.15Q465.67-22.1 465.67-21.8L465.67-21.8 465.82-21.25Q465.97-20.7 466.17-19.83 466.37-18.95 466.54-17.85 466.72-16.75 466.87-15.4 467.02-14.05 467.02-12.8L467.02-12.8Q467.02-6.75 462.69-2.98 458.37 0.8 452.47 0.8ZM462.17-12.55L462.17-12.55Q462.17-16.55 460.87-21.65L460.87-21.65Q460.87-21.95 460.62-21.95L460.62-21.95Q460.47-21.95 460.37-21.9L460.37-21.9Q459.27-21.5 457.47-20.25 455.67-19 453.49-16.98 451.32-14.95 449.79-11.83 448.27-8.7 448.27-5.35L448.27-5.35Q448.27-3.1 449.52-1.83 450.77-0.55 452.92-0.55L452.92-0.55Q455.82-0.55 457.99-2.5 460.17-4.45 461.17-7.13 462.17-9.8 462.17-12.55ZM465.72-23.55L465.72-23.55Q468.82-25.2 470.82-27.9 472.82-30.6 472.82-33.65L472.82-33.65Q472.82-35.15 471.89-36.02 470.97-36.9 469.57-36.9L469.57-36.9Q467.52-36.9 465.87-35.3 464.22-33.7 464.22-31.45L464.22-31.45Q464.22-29 464.37-27.85 464.52-26.7 465.17-23.65L465.17-23.65Q465.27-23.5 465.47-23.5L465.47-23.5Q465.62-23.5 465.72-23.55Z" opacity="1" transform="matrix(1,0,0,1,0,0)" fill="#ffffff" class="slogan-text-1" data-fill-palette-color="secondary" id="text-1"></path></svg></g></svg></g></svg></g></svg></g></svg></g></svg></g></svg></g></svg></g><defs></defs></svg><rect width="395.52" height="247.2" fill="none" stroke="none" visibility="hidden"></rect></g></svg></g></svg>